<svg xmlns="http://www.w3.org/2000/svg" width="312.68" height="352.441" viewBox="0 0 312.68 352.441">
  <g id="Group_7" data-name="Group 7" transform="translate(-284 -211.759)">
    <g id="MS_MSP_Brand_Refresh_Shields_RGB" data-name="MS_MSP Brand Refresh_Shields_RGB" transform="translate(237.1 209.059)">
      <g id="Group_5" data-name="Group 5" transform="translate(50.463 2.7)">
        <path id="Path_65" data-name="Path 65" d="M376.482,789.3c-23.052,27.826-58.325,47.814-105.319,59.536-46.995-11.758-82.3-31.71-105.319-59.536-4.026,1.675-7.874,3.42-11.544,5.273,25.154,31.817,64.381,54.3,116.9,66.911h0c52.517-12.648,91.745-35.094,116.9-66.911C384.356,792.72,380.508,790.975,376.482,789.3Z" transform="translate(-119.597 -509.043)" fill="#0078d4"/>
        <path id="Path_66" data-name="Path 66" d="M73.4,218.362h0c-3.492-17.6-4.2-34.845-4.2-50.664V14.992H347.7V167.7c0,15.819-.713,33.1-4.2,50.664,3.884,1.817,7.7,3.705,11.4,5.665C359.14,204.4,360,185.191,360,167.7V2.7H56.9v165c0,17.494.855,36.7,5.095,56.329C65.7,222.067,69.477,220.179,73.4,218.362Z" transform="translate(-56.9 -2.7)" fill="#0078d4"/>
      </g>
      <path id="Path_67" data-name="Path 67" d="M278.1,106.263c1.639,0,2.458-.891,2.458-2.708V102.7h4.454v35.593h-4.454v-28.5H278.1Z" transform="translate(-148.826 -64.371)" fill="#0078d4"/>
      <path id="Path_68" data-name="Path 68" d="M366.1,130.491c0,5.237-2.209,7.838-6.7,7.838-4.454,0-6.7-2.6-6.7-7.838V110.538c0-5.237,2.209-7.838,6.7-7.838,4.454,0,6.7,2.6,6.7,7.838Zm-4.454-22.2q0-2.031-2.245-2.031c-1.5,0-2.209.677-2.209,2.031V132.7c0,1.354.748,2.031,2.209,2.031q2.245,0,2.245-2.031Z" transform="translate(-196.847 -64.371)" fill="#0078d4"/>
      <path id="Path_69" data-name="Path 69" d="M198.6,130.491c0,5.237-2.245,7.838-6.7,7.838s-6.7-2.6-6.7-7.838V110.538c0-5.237,2.209-7.838,6.7-7.838,4.454,0,6.7,2.6,6.7,7.838Zm-4.454-22.2q0-2.031-2.245-2.031c-1.5,0-2.209.677-2.209,2.031V132.7c0,1.354.748,2.031,2.209,2.031q2.245,0,2.245-2.031Z" transform="translate(-89.025 -64.371)" fill="#0078d4"/>
      <path id="Path_70" data-name="Path 70" d="M449.8,130.491c0,5.237-2.209,7.838-6.7,7.838-4.454,0-6.7-2.6-6.7-7.838V110.538c0-5.237,2.245-7.838,6.7-7.838s6.7,2.6,6.7,7.838Zm-4.454-22.2q0-2.031-2.245-2.031c-1.5,0-2.209.677-2.209,2.031V132.7c0,1.354.748,2.031,2.209,2.031q2.245,0,2.245-2.031Z" transform="translate(-250.725 -64.371)" fill="#0078d4"/>
      <path id="Path_71" data-name="Path 71" d="M529.3,106.263c1.639,0,2.458-.891,2.458-2.708V102.7h4.454v35.593h-4.454v-28.5H529.3Z" transform="translate(-310.526 -64.371)" fill="#0078d4"/>
      <path id="Path_72" data-name="Path 72" d="M613,106.263c1.639,0,2.458-.891,2.458-2.708V102.7h4.454v35.593h-4.454v-28.5H613Z" transform="translate(-364.405 -64.371)" fill="#0078d4"/>
      <path id="Path_73" data-name="Path 73" d="M701,130.491c0,5.237-2.209,7.838-6.7,7.838-4.454,0-6.7-2.6-6.7-7.838V110.538c0-5.237,2.245-7.838,6.7-7.838s6.7,2.6,6.7,7.838Zm-4.454-22.2q0-2.031-2.245-2.031t-2.245,2.031V132.7q0,2.031,2.245,2.031t2.245-2.031Z" transform="translate(-412.425 -64.371)" fill="#0078d4"/>
      <path id="Path_74" data-name="Path 74" d="M780.5,106.263c1.639,0,2.458-.891,2.458-2.708V102.7h4.454v35.593h-4.454v-28.5H780.5Z" transform="translate(-472.226 -64.371)" fill="#0078d4"/>
      <path id="Path_75" data-name="Path 75" d="M279.8,254.963c1.639,0,2.458-.891,2.458-2.708V251.4h4.454v35.593h-4.454V258.526H279.8Z" transform="translate(-149.92 -160.091)" fill="#0078d4"/>
      <path id="Path_76" data-name="Path 76" d="M367.5,279.191c0,5.237-2.245,7.838-6.7,7.838s-6.7-2.6-6.7-7.838V259.238c0-5.237,2.245-7.838,6.7-7.838s6.7,2.6,6.7,7.838Zm-4.454-22.161q0-2.031-2.245-2.031t-2.245,2.031v24.406q0,2.031,2.245,2.031t2.245-2.031Z" transform="translate(-197.748 -160.091)" fill="#0078d4"/>
      <path id="Path_77" data-name="Path 77" d="M200.7,279.191c0,5.237-2.245,7.838-6.7,7.838s-6.7-2.6-6.7-7.838V259.238c0-5.237,2.245-7.838,6.7-7.838s6.7,2.6,6.7,7.838Zm-4.489-22.161q0-2.031-2.245-2.031t-2.245,2.031v24.406q0,2.031,2.245,2.031t2.245-2.031Z" transform="translate(-90.377 -160.091)" fill="#0078d4"/>
      <path id="Path_78" data-name="Path 78" d="M446.7,254.963c1.639,0,2.458-.891,2.458-2.708V251.4h4.454v35.593h-4.454V258.526H446.7Z" transform="translate(-257.356 -160.091)" fill="#0078d4"/>
      <path id="Path_79" data-name="Path 79" d="M534.4,279.191c0,5.237-2.245,7.838-6.7,7.838s-6.7-2.6-6.7-7.838V259.238c0-5.237,2.245-7.838,6.7-7.838s6.7,2.6,6.7,7.838Zm-4.454-22.161q0-2.031-2.245-2.031t-2.245,2.031v24.406q0,2.031,2.245,2.031t2.245-2.031Z" transform="translate(-305.183 -160.091)" fill="#0078d4"/>
      <path id="Path_80" data-name="Path 80" d="M617.9,279.191c0,5.237-2.209,7.838-6.7,7.838-4.454,0-6.7-2.6-6.7-7.838V259.238c0-5.237,2.245-7.838,6.7-7.838s6.7,2.6,6.7,7.838Zm-4.454-22.161q0-2.031-2.245-2.031t-2.245,2.031v24.406q0,2.031,2.245,2.031t2.245-2.031Z" transform="translate(-358.933 -160.091)" fill="#0078d4"/>
      <path id="Path_81" data-name="Path 81" d="M697.1,254.963c1.639,0,2.458-.891,2.458-2.708V251.4h4.454v35.593h-4.454V258.526H697.1Z" transform="translate(-418.541 -160.091)" fill="#0078d4"/>
      <path id="Path_82" data-name="Path 82" d="M780.5,254.963c1.639,0,2.458-.891,2.458-2.708V251.4h4.454v35.593h-4.454V258.526H780.5Z" transform="translate(-472.226 -160.091)" fill="#0078d4"/>
      <path id="Path_83" data-name="Path 83" d="M279.8,403.763c1.639,0,2.458-.891,2.458-2.708V400.2h4.454v35.593h-4.454v-28.5H279.8Z" transform="translate(-149.92 -255.875)" fill="#0078d4"/>
      <path id="Path_84" data-name="Path 84" d="M260.126,427.891c0,5.237-2.245,7.838-6.7,7.838s-6.7-2.6-6.7-7.838V407.938c0-5.237,2.245-7.838,6.7-7.838s6.7,2.6,6.7,7.838Zm-4.454-22.161q0-2.031-2.245-2.031t-2.245,2.031v24.406q0,2.031,2.245,2.031t2.245-2.031ZM200.7,427.891c0,5.237-2.245,7.838-6.7,7.838s-6.7-2.6-6.7-7.838V407.938c0-5.237,2.245-7.838,6.7-7.838s6.7,2.6,6.7,7.838Zm-4.489-22.161q0-2.031-2.245-2.031c-1.5,0-2.209.677-2.209,2.031v24.406c0,1.354.748,2.031,2.209,2.031q2.245,0,2.245-2.031Z" transform="translate(-90.377 -255.811)" fill="#0078d4"/>
      <path id="Path_85" data-name="Path 85" d="M447,403.763c1.639,0,2.458-.891,2.458-2.708V400.2h4.454v35.593h-4.454v-28.5H447Z" transform="translate(-257.549 -255.875)" fill="#0078d4"/>
      <path id="Path_86" data-name="Path 86" d="M534.7,427.891c0,5.237-2.245,7.838-6.7,7.838s-6.7-2.6-6.7-7.838V407.938c0-5.237,2.245-7.838,6.7-7.838s6.7,2.6,6.7,7.838Zm-4.489-22.161q0-2.031-2.245-2.031t-2.245,2.031v24.406q0,2.031,2.245,2.031t2.245-2.031Z" transform="translate(-305.376 -255.811)" fill="#0078d4"/>
      <path id="Path_87" data-name="Path 87" d="M618,427.891c0,5.237-2.245,7.838-6.7,7.838s-6.7-2.6-6.7-7.838V407.938c0-5.237,2.245-7.838,6.7-7.838s6.7,2.6,6.7,7.838Zm-4.454-22.161q0-2.031-2.245-2.031c-1.5,0-2.209.677-2.209,2.031v24.406c0,1.354.748,2.031,2.209,2.031q2.245,0,2.245-2.031Z" transform="translate(-358.997 -255.811)" fill="#0078d4"/>
      <path id="Path_88" data-name="Path 88" d="M701.4,427.891c0,5.237-2.209,7.838-6.7,7.838-4.454,0-6.7-2.6-6.7-7.838V407.938c0-5.237,2.209-7.838,6.7-7.838,4.454,0,6.7,2.6,6.7,7.838Zm-4.454-22.161q0-2.031-2.245-2.031c-1.5,0-2.209.677-2.209,2.031v24.406c0,1.354.748,2.031,2.209,2.031q2.245,0,2.245-2.031Z" transform="translate(-412.683 -255.811)" fill="#0078d4"/>
      <path id="Path_89" data-name="Path 89" d="M784.8,427.891c0,5.237-2.209,7.838-6.7,7.838-4.454,0-6.7-2.6-6.7-7.838V407.938c0-5.237,2.245-7.838,6.7-7.838s6.7,2.6,6.7,7.838Zm-4.454-22.161q0-2.031-2.245-2.031t-2.245,2.031v24.406q0,2.031,2.245,2.031t2.245-2.031Z" transform="translate(-466.368 -255.811)" fill="#0078d4"/>
      <g id="Group_6" data-name="Group 6" transform="translate(46.9 205.001)">
        <path id="Path_90" data-name="Path 90" d="M209.452,651.527a6.905,6.905,0,0,0-6.235-.819,7.005,7.005,0,0,0-4.774,4.311,10.446,10.446,0,0,0,.143,7.268,12.378,12.378,0,0,0,2.494,4.489,7.81,7.81,0,0,0,3.6,2.387,6.869,6.869,0,0,0,4.062-.036,6.8,6.8,0,0,0,4.6-3.955c.855-1.96.891-4.382.071-7.3C212.552,654.912,211.234,652.774,209.452,651.527Z" transform="translate(-144.073 -621.884)" fill="#0078d4"/>
        <path id="Path_91" data-name="Path 91" d="M300.531,630.739a9.689,9.689,0,0,0-7.34-.962c-1.176.249-2.316.463-3.492.748,1.318,6.057,2.6,12.078,3.919,18.135,1.069-.214,2.138-.463,3.207-.677a8.967,8.967,0,0,0,6.093-3.741,9.7,9.7,0,0,0,1.14-7.3Q303.364,632.609,300.531,630.739Z" transform="translate(-203.193 -608.471)" fill="#0078d4"/>
        <path id="Path_92" data-name="Path 92" d="M203.24,570.5c-60.64,0-116.079,14.287-156.34,40.261l20.166,41.4C99.916,631.5,150.509,619.2,203.24,619.2c52.7,0,103.324,12.292,136.174,32.957l20.166-41.4C319.319,584.787,263.88,570.5,203.24,570.5ZM90.4,628.718a19.6,19.6,0,0,1-3.42,1.817,12.44,12.44,0,0,1-6.413.926,11.277,11.277,0,0,1-5.665-2.494,15.088,15.088,0,0,1-4.1-5.558,14.594,14.594,0,0,1-1.39-7.34,12.039,12.039,0,0,1,2.565-6.52A14.412,14.412,0,0,1,77.9,605.2a22.53,22.53,0,0,1,3.313-1.033,11.335,11.335,0,0,1,3.1-.356c.534,1.354,1.033,2.743,1.568,4.1a11.935,11.935,0,0,0-6.449.748,9.189,9.189,0,0,0-3.99,2.957,8.217,8.217,0,0,0-1.675,4.454,11.363,11.363,0,0,0,1.033,5.237,10.043,10.043,0,0,0,4.81,5.38,7.8,7.8,0,0,0,6.556,0,11.752,11.752,0,0,0,5.309-4.026c.5,1.283.962,2.565,1.461,3.812A9.876,9.876,0,0,1,90.4,628.718Zm30.427-16.425a11.839,11.839,0,0,1-2.779,5.772,12.058,12.058,0,0,1-5.487,3.385,11.776,11.776,0,0,1-6.271.249,11.523,11.523,0,0,1-5.416-3.064,15.89,15.89,0,0,1-3.67-5.95,16.257,16.257,0,0,1-.926-7.34,10.99,10.99,0,0,1,2.708-6.021,12.765,12.765,0,0,1,6.057-3.705,12.062,12.062,0,0,1,6.627-.249,10.667,10.667,0,0,1,5.416,3.313,14.868,14.868,0,0,1,3.278,6.271A15.875,15.875,0,0,1,120.83,612.293Zm30.855-6.983a11.885,11.885,0,0,1-3.812,5.416,14.8,14.8,0,0,1-6.52,2.922c-2.387.5-4.774,1-7.161,1.568-1.924-8.444-3.884-16.888-5.808-25.332,2.637-.606,5.309-1.176,7.945-1.71,4.6-.926,8.266-.5,10.938,1.247,2.672,1.71,4.275,4.667,4.952,8.765A14.8,14.8,0,0,1,151.685,605.309Zm13.5,4.454c-1.1-8.587-2.209-17.209-3.313-25.8,4.81-.606,9.655-1.069,14.465-1.461.107,1.247.214,2.458.321,3.705-3.313.285-6.627.57-9.94.962.285,2.423.57,4.846.819,7.268,2.993-.321,6.021-.606,9.014-.855.107,1.211.214,2.458.321,3.67-2.957.249-5.95.534-8.907.855l.855,7.482c3.313-.356,6.627-.677,9.94-.926.107,1.247.214,2.458.321,3.705Q172.136,608.908,165.188,609.763Zm41.828-2.387c-1.354,0-2.672-.036-4.026-.036,0-8.658-.036-17.316-.036-25.974,1.461,0,2.886,0,4.347.036C207.195,590.06,207.123,598.718,207.016,607.376Zm26.294-19.525a7.494,7.494,0,0,0-2.423-1.568,8.809,8.809,0,0,0-2.993-.748,4.791,4.791,0,0,0-3.135.677,2.77,2.77,0,0,0-1.283,2.28,4.007,4.007,0,0,0,.249,1.781,4.391,4.391,0,0,0,1.1,1.461,22.375,22.375,0,0,0,2.743,2,14.969,14.969,0,0,1,4.489,3.99,6.171,6.171,0,0,1,1.033,4.24,6.645,6.645,0,0,1-2.779,5.131,9.7,9.7,0,0,1-6.484,1.461,12.615,12.615,0,0,1-3.207-.677,9.642,9.642,0,0,1-2.494-1.176l.214-4.7a9.192,9.192,0,0,0,2.743,1.96,8.857,8.857,0,0,0,3.385.962,4.643,4.643,0,0,0,2.957-.606A2.883,2.883,0,0,0,228.643,602a3.747,3.747,0,0,0-.819-2.565,15.318,15.318,0,0,0-3.705-2.993,13.454,13.454,0,0,1-4.026-3.563,6.716,6.716,0,0,1-1.211-4.276,6.867,6.867,0,0,1,1.247-3.67,6.972,6.972,0,0,1,3.278-2.423,10.572,10.572,0,0,1,4.7-.606,16.958,16.958,0,0,1,3.313.57,10.376,10.376,0,0,1,2.28.891C233.6,584.823,233.453,586.319,233.311,587.851Zm37.018,26.829c-4.418-.962-8.836-1.853-13.29-2.637l4.525-25.582c1.425.249,2.85.5,4.311.784-1.39,7.3-2.779,14.572-4.133,21.876q4.7.909,9.406,1.924C270.863,612.257,270.578,613.469,270.329,614.68Zm13.254,3.242c-1.283-.356-2.6-.677-3.919-1.033,2.138-8.408,4.275-16.781,6.413-25.19,1.425.356,2.815.713,4.24,1.1ZM315.578,604.6c-3.1-1.1-6.2-2.173-9.335-3.171-.784,2.423-1.6,4.881-2.387,7.3q4.222,1.389,8.444,2.886c-.428,1.176-.819,2.316-1.247,3.492-2.779-1-5.558-1.924-8.337-2.85-1.1,3.456-2.245,6.876-3.385,10.332-1.283-.428-2.565-.819-3.884-1.247,2.565-8.266,5.166-16.532,7.731-24.8,4.561,1.425,9.121,2.922,13.61,4.56C316.433,602.281,316.005,603.457,315.578,604.6Zm14.75,5.7c-.926,2.245-1.853,4.525-2.815,6.77,2.779,1.14,5.522,2.316,8.266,3.563l-1.5,3.385c-2.708-1.211-5.451-2.387-8.195-3.527l-2.886,6.948c3.064,1.283,6.093,2.565,9.121,3.955-.5,1.14-1.033,2.245-1.532,3.385-4.24-1.924-8.515-3.705-12.791-5.451q4.81-12.078,9.62-24.121c4.489,1.781,8.907,3.67,13.325,5.629l-1.532,3.385C336.421,612.863,333.392,611.545,330.328,610.3Z" transform="translate(-46.9 -570.5)" fill="#0078d4"/>
      </g>
      <path id="Path_93" data-name="Path 93" d="M465.023,790.6l-11.508,11.508L442.006,790.6H435.7l17.814,17.814L471.329,790.6Z" transform="translate(-250.275 -507.18)" fill="#0078d4"/>
      <path id="Path_94" data-name="Path 94" d="M435.7,866.779h6.306l11.508-11.473,11.508,11.473h6.306L453.514,849Z" transform="translate(-250.275 -544.772)" fill="#0078d4"/>
      <path id="Path_95" data-name="Path 95" d="M482.768,784.034a3.634,3.634,0,1,0-3.634,3.634,3.649,3.649,0,0,0,3.634-3.634" transform="translate(-275.894 -500.614)" fill="#0078d4"/>
    </g>
  </g>
</svg>
